<svg version="1.1" viewBox="0 0 2048 2048" width="512" height="512" xmlns="http://www.w3.org/2000/svg">
  <path fill="white" transform="translate(926,539)" d="m0 0h249l9 2 9 6 6 9 2 6v433h3l-1-5 1-302 1-20 3-10 6-12 7-9 8-8 14-8 12-4 16-1h288l26 1 21 4 21 7 21 11 12 10 10 13 9 15 46 69 14 22 29 43 10 16 54 81 13 20 21 32 6 12 1 43-1 272-3 12-7 14-8 10-7 6-12 7-12 4-6 1-23 1h-46l-7 25-7 18-8 16-7 12-8 12-9 11-3 4h-2l-2 4-10 10h-2v2l-14 11-14 10-22 12-20 8-21 6-22 4-10 1h-33l-22-3-20-5-17-6-25-12-13-8-16-12-13-12-12-12-11-14-7-10-10-17-8-17-7-21-4-17-630-1-2 10-6 20-6 15-8 16-11 18-10 13-12 13-12 12-14 11-15 10-23 12-19 7-18 5-21 4-11 1h-33l-21-3-17-4-21-7-25-12-14-9-12-9-14-12-10-10-7-8-10-13-10-16-10-19-7-18-7-26h-66l-19-1-13-4-9-5-10-9-6-8-4-8-3-11-1-13v-233l2-15 5-12 6-9 8-8 12-7 10-3 6-1h442v-195l4-9 7-8 6-4 5-2h161l55 1v-217l5-10 7-7zm37 59v180h179l1-180zm301 77-1 3v340l1 265h75l6-30 5-17 6-16 8-16 7-12 8-12 13-16 7-8 8-7 13-11 18-12 18-10 22-9 23-6 16-3 10-1h36l22 3 23 6 20 8 16 8 14 8 16 12 10 9 8 7 11 12 12 16 10 17 8 16 8 21 6 24 3 18 1 1h61l2-7v-288l-7-12-20-30-308-1-13-2-13-5-9-7-9-10-6-13-2-8-1-21v-57l1-53 4-13 4-8 9-10 8-6 13-6 16-2 158-1-5-9-10-15-7-10-8-5-13-5-17-4zm220 107v105h263l-2-5-26-39-29-44-10-15-2-2zm-519 53-2 1v159h179l1-159-2-1zm-106 0-134 1v159h179v-160zm-623 218-2 1v229h70l4-24 5-19 9-24 9-17 7-11 10-14 13-15 11-11 14-11 18-12 21-11 21-8 19-5 17-3 10-1h35l22 3 23 6 25 10 19 10 12 8 13 10 13 12 10 10 11 14 10 15 12 23 7 18 5 17 6 30h489v-229l-1-1zm266 101-19 2-20 5-20 8-17 10-10 8-10 9-10 10-13 18-10 19-8 24-3 17-1 10v12l2 22 4 16 5 15 8 16 10 16 9 10 7 8 10 9 18 12 16 8 16 6 16 4 16 2h23l15-2 20-5 21-9 18-11 10-8 10-9 11-12 7-10 8-14 4-8 6-16 5-23 1-19v-16l-4-22-7-21-8-16-10-16-11-13-8-8-17-13-17-10-20-8-15-4-10-2-13-1zm1036 0-20 2-19 5-16 6-15 8-14 10-13 11-12 13-9 13-9 16-7 17-5 19-2 15v23l2 18 5 19 6 15 7 14 8 12 11 13 12 12 15 11 16 9 16 7 17 5 21 3h24l20-3 20-6 15-7 16-9 14-11 6-5v-2h2v-2h2l7-8 9-12 8-13 9-21 5-19 2-13 1-21-2-20-5-21-8-20-9-16-9-12-11-13-8-7-15-11-16-9-19-8-20-5-21-2z"/>
  <path fill="white" transform="translate(1537,1217)" d="m0 0h16l15 3 13 5 11 6 11 9 8 8 9 14 5 11 4 15 1 7v15l-3 15-6 16-9 14-4 5h-2l-2 4-13 10-16 8-19 5h-21l-14-3-13-5-12-7-13-11-8-10-8-14-5-14-2-10v-22l4-17 8-16 7-10 9-10 14-10 15-7 13-3zm7 58-9 2-8 5-6 7-3 11 1 9 3 7 7 8 9 4 8 1 9-2 9-6v-2h2l5-10v-14l-5-10-7-6-7-3z"/>
  <path fill="white" transform="translate(501,1217)" d="m0 0h16l16 3 13 5 13 8 10 9 5 5 8 11 7 14 4 14 1 6v21l-4 17-8 16-6 9-9 10-3 1v2l-14 9-14 6-16 4h-21l-17-4-14-6-10-7-10-9-8-9-8-14-6-16-2-12v-16l3-15 5-13 6-11 9-11 9-9 14-9 15-6zm1 59-10 5-6 7-3 8v12l4 9 5 6 10 5 9 1 10-3 6-4 5-6 3-6 1-11-3-9-4-6-7-6-6-2z"/>
  <path fill="white" transform="translate(1202,992)" d="m0 0"/>
</svg>
